<svg width="190" height="121" viewBox="0 0 190 121" fill="none" xmlns="http://www.w3.org/2000/svg">
<path d="M30.816 94.728C26.4 94.728 22.56 93.96 19.296 92.424C16.096 90.888 13.44 88.84 11.328 86.28C9.216 83.656 7.616 80.776 6.528 77.64C5.504 74.504 4.992 71.368 4.992 68.232V66.504C4.992 63.24 5.504 60.04 6.528 56.904C7.616 53.768 9.216 50.952 11.328 48.456C13.504 45.896 16.192 43.848 19.392 42.312C22.592 40.776 26.336 40.008 30.624 40.008C34.912 40.008 38.752 40.808 42.144 42.408C45.6 44.008 48.352 46.28 50.4 49.224C52.512 52.104 53.696 55.528 53.952 59.496H45.12C44.672 56.296 43.2 53.64 40.704 51.528C38.208 49.352 34.848 48.264 30.624 48.264C26.976 48.264 23.936 49.096 21.504 50.76C19.072 52.424 17.248 54.696 16.032 57.576C14.816 60.456 14.208 63.72 14.208 67.368C14.208 70.888 14.816 74.12 16.032 77.064C17.248 79.944 19.072 82.248 21.504 83.976C24 85.64 27.104 86.472 30.816 86.472C35.104 86.472 38.56 85.384 41.184 83.208C43.808 80.968 45.312 78.216 45.696 74.952H54.528C54.336 78.984 53.152 82.472 50.976 85.416C48.864 88.36 46.048 90.664 42.528 92.328C39.072 93.928 35.168 94.728 30.816 94.728ZM90.6668 94.728C86.1868 94.728 82.2508 93.96 78.8588 92.424C75.4668 90.888 72.5868 88.872 70.2188 86.376C67.9148 83.816 66.1548 80.968 64.9388 77.832C63.7868 74.696 63.2108 71.496 63.2108 68.232V66.504C63.2108 63.24 63.8188 60.04 65.0348 56.904C66.2508 53.704 68.0428 50.856 70.4108 48.36C72.7788 45.8 75.6588 43.784 79.0508 42.312C82.4428 40.776 86.3148 40.008 90.6668 40.008C95.0188 40.008 98.8908 40.776 102.283 42.312C105.675 43.784 108.555 45.8 110.923 48.36C113.291 50.856 115.083 53.704 116.299 56.904C117.515 60.04 118.123 63.24 118.123 66.504V68.232C118.123 71.496 117.515 74.696 116.299 77.832C115.147 80.968 113.387 83.816 111.019 86.376C108.715 88.872 105.867 90.888 102.475 92.424C99.0828 93.96 95.1468 94.728 90.6668 94.728ZM90.6668 86.472C94.5068 86.472 97.7708 85.64 100.459 83.976C103.211 82.248 105.291 79.944 106.699 77.064C108.171 74.184 108.907 70.952 108.907 67.368C108.907 63.72 108.171 60.456 106.699 57.576C105.227 54.696 103.115 52.424 100.363 50.76C97.6748 49.096 94.4428 48.264 90.6668 48.264C86.9548 48.264 83.7228 49.096 80.9708 50.76C78.2188 52.424 76.1068 54.696 74.6348 57.576C73.1628 60.456 72.4268 63.72 72.4268 67.368C72.4268 70.952 73.1308 74.184 74.5388 77.064C76.0108 79.944 78.0908 82.248 80.7788 83.976C83.5308 85.64 86.8268 86.472 90.6668 86.472Z" fill="#00A3FF"/>
<path d="M153.334 94.728C148.47 94.728 144.118 93.544 140.278 91.176C136.502 88.808 133.526 85.64 131.35 81.672C129.174 77.64 128.086 73.16 128.086 68.232V66.504C128.086 61.64 129.142 57.224 131.254 53.256C133.366 49.224 136.278 46.024 139.99 43.656C143.766 41.224 148.118 40.008 153.046 40.008C156.822 40.008 160.278 40.776 163.414 42.312C166.614 43.848 169.206 46.248 171.19 49.512V22.92H180.406V93H173.11V82.44C171.126 86.792 168.342 89.928 164.758 91.848C161.238 93.768 157.43 94.728 153.334 94.728ZM154.582 86.664C157.718 86.664 160.566 85.96 163.126 84.552C165.686 83.144 167.734 81.128 169.27 78.504C170.806 75.816 171.574 72.68 171.574 69.096V64.68C171.574 61.16 170.774 58.184 169.174 55.752C167.638 53.256 165.558 51.368 162.934 50.088C160.374 48.744 157.558 48.072 154.486 48.072C149.366 48.072 145.206 49.832 142.006 53.352C138.87 56.872 137.302 61.544 137.302 67.368C137.302 71.272 138.038 74.696 139.51 77.64C140.982 80.52 143.03 82.76 145.654 84.36C148.278 85.896 151.254 86.664 154.582 86.664Z" fill="#CCCCCC"/>
<path d="M114.053 53.3517L121.404 48.5878L122.879 50.8637L119.84 55.221L119.964 55.4124L125.17 54.3984L126.67 56.7146L119.319 61.4785L118.262 59.8471L123.932 56.173L118.643 57.1693L117.625 55.5983L120.661 51.2142L115.032 54.8622L114.053 53.3517ZM124.055 68.7866L131.406 64.0227L132.477 65.6742L125.125 70.4381L124.055 68.7866ZM130.809 79.2097L136.721 75.379L135.383 73.3146L136.823 72.3814L140.575 78.1719L139.135 79.1051L137.791 77.0306L131.88 80.8613L130.809 79.2097ZM139.345 92.8C138.897 92.1085 138.643 91.4384 138.585 90.7897C138.538 90.1433 138.673 89.5415 138.988 88.9842C139.304 88.4269 139.787 87.9373 140.439 87.5153L144.799 84.6895L145.869 86.3411L141.448 89.206C140.965 89.5192 140.666 89.9036 140.551 90.3593C140.448 90.8172 140.559 91.298 140.885 91.8015C141.212 92.305 141.603 92.5997 142.059 92.6855C142.519 92.778 142.994 92.6655 143.485 92.3479L147.905 89.4831L148.976 91.1346L144.615 93.9603C143.964 94.3823 143.32 94.6236 142.682 94.6841C142.044 94.7445 141.44 94.6213 140.869 94.3143C140.305 94.003 139.797 93.4982 139.345 92.8Z" fill="#323232"/>
</svg>
