<svg width="2000" height="1954" viewBox="0 0 2000 1954" fill="none" xmlns="http://www.w3.org/2000/svg">
<path d="M0 459.19L2000 0V1494.81L0 1954V459.19Z" fill="url(#paint0_linear)"/>
<path d="M539 733.2L1461 517V1220.8L539 1437V733.2Z" fill="url(#paint1_linear)"/>
<path d="M539 733.2L1461 517V1220.8L539 1437V733.2Z" fill="black" fill-opacity="0.08"/>
<path d="M2000 703.8L1078 920V211.756L2000 -6.10352e-05V703.8Z" fill="url(#paint2_linear)"/>
<path d="M2000 703.8L1078 920V211.756L2000 -6.10352e-05V703.8Z" fill="black" fill-opacity="0.2"/>
<path d="M2000 351.9L1539 460V105.878L2000 -3.05176e-05V351.9Z" fill="url(#paint3_linear)"/>
<path d="M0 1250.2L922 1034V1742.24L0 1954V1250.2Z" fill="url(#paint4_linear)"/>
<path d="M0 1250.2L922 1034V1742.24L0 1954V1250.2Z" fill="black" fill-opacity="0.2"/>
<path d="M0 1602.1L461 1494V1848.12L0 1954V1602.1Z" fill="url(#paint5_linear)"/>
<path d="M2000 0L0 501V459.592L2000 0Z" fill="url(#paint6_linear)"/>
<path d="M0 1954L2000 1453V1494.41L0 1954Z" fill="url(#paint7_linear)"/>
<defs>
<linearGradient id="paint0_linear" x1="2479" y1="-341.95" x2="1165.6" y2="2429.79" gradientUnits="userSpaceOnUse">
<stop stop-color="#00FFF0"/>
<stop offset="1" stop-color="#01A084"/>
</linearGradient>
<linearGradient id="paint1_linear" x1="1681.82" y1="356" x2="1055.2" y2="1650.78" gradientUnits="userSpaceOnUse">
<stop stop-color="#00FFF0"/>
<stop offset="1" stop-color="#01A084"/>
</linearGradient>
<linearGradient id="paint2_linear" x1="857.181" y1="1081" x2="1483.8" y2="-213.785" gradientUnits="userSpaceOnUse">
<stop stop-color="#00FFF0"/>
<stop offset="1" stop-color="#01A084"/>
</linearGradient>
<linearGradient id="paint3_linear" x1="1428.59" y1="540.5" x2="1741.9" y2="-106.892" gradientUnits="userSpaceOnUse">
<stop stop-color="#00FFF0"/>
<stop offset="1" stop-color="#01A084"/>
</linearGradient>
<linearGradient id="paint4_linear" x1="1142.82" y1="873" x2="516.2" y2="2167.78" gradientUnits="userSpaceOnUse">
<stop stop-color="#00FFF0"/>
<stop offset="1" stop-color="#01A084"/>
</linearGradient>
<linearGradient id="paint5_linear" x1="571.41" y1="1413.5" x2="258.1" y2="2060.89" gradientUnits="userSpaceOnUse">
<stop stop-color="#00FFF0"/>
<stop offset="1" stop-color="#01A084"/>
</linearGradient>
<linearGradient id="paint6_linear" x1="1038.5" y1="314.047" x2="1052.32" y2="120.468" gradientUnits="userSpaceOnUse">
<stop stop-color="#ACACAC" stop-opacity="0.27"/>
<stop offset="1" stop-color="#E2E2E2"/>
</linearGradient>
<linearGradient id="paint7_linear" x1="961.5" y1="1639.95" x2="947.683" y2="1833.53" gradientUnits="userSpaceOnUse">
<stop stop-color="#ACACAC" stop-opacity="0.27"/>
<stop offset="1" stop-color="#E2E2E2"/>
</linearGradient>
</defs>
</svg>
