<svg width="973" height="637" viewBox="0 0 973 637" fill="none" xmlns="http://www.w3.org/2000/svg">
<g clip-path="url(#clip0)">
<path d="M945.479 489.614C944.873 488.882 944.433 488.026 944.191 487.104C943.949 486.183 943.91 485.219 944.077 484.281C944.245 483.343 944.614 482.453 945.159 481.674C945.705 480.896 946.413 480.247 947.234 479.774L943 457L954.012 461.664L956.344 482.575C957.041 484.018 957.188 485.669 956.759 487.214C956.329 488.759 955.352 490.092 954.013 490.959C952.673 491.827 951.065 492.169 949.492 491.921C947.919 491.673 946.491 490.852 945.479 489.614V489.614Z" fill="#FFB6B6"/>
<path d="M826.044 406.354C826.451 407.218 827.042 407.982 827.776 408.592C828.51 409.202 829.369 409.644 830.292 409.887C831.216 410.129 832.181 410.166 833.12 409.995C834.059 409.824 834.949 409.449 835.728 408.897L854.614 422.377L855.059 410.328L837.056 399.374C836.042 398.127 834.605 397.296 833.019 397.038C831.433 396.78 829.807 397.112 828.449 397.973C827.092 398.833 826.097 400.162 825.654 401.707C825.211 403.251 825.349 404.905 826.044 406.354Z" fill="#FFB6B6"/>
<path d="M942.998 616H934.868L931 585L943 585.001L942.998 616Z" fill="#FFB6B6"/>
<path d="M945 624L919 623.999V623.653C919 620.828 920.066 618.118 921.964 616.12C923.862 614.123 926.436 613 929.12 613H929.12L945 613.001L945 624Z" fill="#2F2E41"/>
<path d="M916.654 616L909 613.584L914.704 583L926 586.566L916.654 616Z" fill="#FFB6B6"/>
<path d="M915.952 624L892 616.269L892.096 615.96C892.879 613.44 894.612 611.339 896.914 610.121C899.215 608.903 901.898 608.667 904.37 609.465L904.371 609.465L919 614.187L915.952 624Z" fill="#2F2E41"/>
<path d="M907.511 465.387C907.511 465.387 895.727 483.972 899.891 500.56C904.055 517.147 908.59 549.03 908.59 549.03L931.169 603L948 602.31L931.286 538.678L931.946 496.133C931.946 496.133 943.564 475.799 941.301 469.47C939.039 463.14 907.511 465.387 907.511 465.387Z" fill="#2F2E41"/>
<path d="M945.782 472.974C945.782 472.974 947.218 491.234 942.726 498.967C938.234 506.7 933.448 536.134 933.448 536.134L925.814 595L910 589.832L923.485 523.879L934.083 472L945.782 472.974Z" fill="#2F2E41"/>
<path d="M951.07 383.13L938.601 374.552L919.626 374L913.018 380.484L902.934 385.637L902 469.599C902 469.599 932.197 484.085 948.443 477.093L956.258 411.687C959.5 398.706 951.07 383.13 951.07 383.13Z" fill="#3F3D56"/>
<path d="M911.054 407.067L888.273 431.36L845.834 421.559L851.455 407.326L875.331 413.197L886.108 399.397L893.173 391.094C894.305 389.763 895.714 388.696 897.301 387.967C898.889 387.238 900.616 386.864 902.363 386.873C904.11 386.881 905.834 387.271 907.415 388.015C908.995 388.759 910.394 389.84 911.514 391.181V391.181C913.386 393.43 914.373 396.286 914.288 399.211C914.203 402.137 913.053 404.93 911.054 407.067Z" fill="#3F3D56"/>
<path d="M931 367C939.837 367 947 359.613 947 350.5C947 341.387 939.837 334 931 334C922.163 334 915 341.387 915 350.5C915 359.613 922.163 367 931 367Z" fill="#FFB6B6"/>
<path d="M950.887 347.013C950.385 343.447 947.957 340.06 944.503 338.98C943.131 335.017 939.498 332.1 935.483 330.828C931.765 329.649 927.759 329.731 924.093 331.061C920.426 332.391 917.308 334.894 915.226 338.177C914.919 338.657 913.974 339.838 914.001 340.411C914.034 341.14 915.154 341.891 915.717 342.351C917.111 343.423 918.615 344.346 920.204 345.105C926.077 348.134 924.122 352.893 924.042 358.286C924.003 360.907 924.883 363.145 927.13 364.642C930.373 366.803 935.013 365.943 938.541 365.076C942.545 364.092 945.873 360.594 948.156 357.221C950.178 354.234 951.388 350.58 950.887 347.013Z" fill="#2F2E41"/>
<path d="M950.775 405L957 475L937 473.9L950.775 405Z" fill="#3F3D56"/>
<path d="M1022.23 626H769.772C769.567 625.999 769.371 625.894 769.226 625.706C769.081 625.519 769 625.265 769 625C769 624.735 769.081 624.481 769.226 624.294C769.371 624.106 769.567 624.001 769.772 624H1022.23C1022.43 624 1022.63 624.105 1022.77 624.293C1022.92 624.48 1023 624.735 1023 625C1023 625.265 1022.92 625.52 1022.77 625.707C1022.63 625.895 1022.43 626 1022.23 626V626Z" fill="#CACACA"/>
<path d="M15.0013 618H21.099L24 594H15L15.0013 618Z" fill="#9E616A"/>
<path d="M13 616.001L25.8258 616H25.8264C27.9941 616 30.073 616.816 31.6058 618.269C33.1387 619.722 33.9998 621.693 34 623.747V623.999L13.0004 624L13 616.001Z" fill="#2F2E41"/>
<path d="M73.0013 618H79.099L82 594H73L73.0013 618Z" fill="#9E616A"/>
<path d="M71 616L83.2151 616H83.2156C85.2801 616 87.26 616.816 88.7198 618.269C90.1797 619.722 90.9999 621.693 91 623.748V623.999L71.0004 624L71 616Z" fill="#2F2E41"/>
<path d="M64.8948 424L69 450.481L30 451L35.1313 425.558L64.8948 424Z" fill="#9E616A"/>
<path d="M68.0432 444L80.4609 476.853L82 613H71.4832L46.3457 503.613L23.2602 610.144H13L20.1822 490.36C20.1822 490.36 18.0642 466.318 28.9033 452.131L31.5417 444.558L68.0432 444Z" fill="#2F2E41"/>
<path d="M15.0283 469.712C16.1368 469.414 17.1655 468.88 18.0421 468.147C18.9187 467.415 19.6218 466.501 20.1019 465.471C20.5819 464.442 20.8273 463.321 20.8207 462.187C20.814 461.054 20.5556 459.935 20.0635 458.911L37 404.436L24.5426 402L9.05249 455.397C7.36317 456.326 6.07817 457.835 5.44099 459.637C4.80381 461.439 4.85872 463.409 5.59531 465.173C6.3319 466.938 7.699 468.374 9.43756 469.211C11.1761 470.048 13.1653 470.226 15.0283 469.712Z" fill="#9E616A"/>
<path d="M36.7429 438C36.5182 438 36.294 437.978 36.0736 437.934V437.934C35.3326 437.785 34.6604 437.398 34.1598 436.831C33.6592 436.264 33.3577 435.548 33.3014 434.794C32.9206 429.573 31.0343 420.487 27.6946 407.785C26.5673 403.468 26.817 398.907 28.4087 394.739C30.0005 390.571 32.8546 387.007 36.5708 384.546C40.2871 382.085 44.6792 380.85 49.1315 381.015C53.5838 381.179 57.8731 382.735 61.3981 385.464C63.655 387.195 65.5387 389.366 66.9357 391.846C68.3327 394.326 69.2141 397.063 69.5268 399.893C71.1866 414.532 68.0574 429.23 66.6352 434.87C66.4482 435.606 66.0255 436.26 65.4317 436.733C64.8379 437.205 64.1058 437.47 63.3475 437.486L36.8166 437.999C36.792 438 36.7675 438 36.7429 438Z" fill="#3F3D56"/>
<path d="M112.763 429.246C112.415 429.432 112.083 429.645 111.769 429.883L78.3841 418.347L76.7426 409.925L63.7078 410.741L65.1648 425.933C65.2826 427.161 65.7952 428.317 66.6259 429.228C67.4565 430.139 68.5604 430.756 69.7716 430.987L109.248 438.498C109.784 439.919 110.739 441.143 111.987 442.007C113.235 442.872 114.716 443.336 116.234 443.338C117.753 443.34 119.235 442.88 120.486 442.019C121.736 441.158 122.694 439.936 123.234 438.517C123.773 437.097 123.867 435.548 123.504 434.074C123.141 432.599 122.337 431.271 121.201 430.264C120.064 429.258 118.648 428.621 117.14 428.439C115.633 428.258 114.106 428.539 112.763 429.246L112.763 429.246Z" fill="#9E616A"/>
<path d="M77.992 415.156L62.3803 419.434C61.9361 419.556 61.4709 419.58 61.0164 419.506C60.5618 419.432 60.1286 419.26 59.7463 419.003C59.364 418.747 59.0415 418.41 58.8008 418.018C58.5601 417.625 58.4069 417.185 58.3516 416.728L56.4139 400.707C55.8024 398.43 56.1191 396.004 57.2944 393.96C58.4698 391.917 60.4078 390.423 62.6832 389.806C64.9586 389.19 67.3856 389.502 69.4316 390.673C71.4776 391.844 72.9755 393.779 73.5967 396.053L80.0787 410.775C80.2642 411.196 80.3566 411.653 80.3497 412.113C80.3428 412.574 80.2367 413.028 80.0387 413.443C79.8406 413.859 79.5553 414.227 79.2021 414.523C78.849 414.819 78.4362 415.035 77.992 415.156L77.992 415.156Z" fill="#3F3D56"/>
<path d="M34.6779 418.78L19.983 412.923C19.5649 412.756 19.1871 412.5 18.8753 412.172C18.5636 411.844 18.3252 411.451 18.1764 411.021C18.0276 410.591 17.972 410.133 18.0132 409.68C18.0544 409.226 18.1916 408.786 18.4153 408.391L26.2557 394.542C27.108 392.376 28.7722 390.642 30.8831 389.719C32.9941 388.796 35.3796 388.76 37.5165 389.619C39.6534 390.479 41.3673 392.163 42.2824 394.302C43.1974 396.441 43.239 398.862 42.3979 401.032L38.8666 416.543C38.7653 416.987 38.5709 417.404 38.2967 417.765C38.0224 418.126 37.6747 418.423 37.2772 418.635C36.8797 418.847 36.4417 418.97 35.9932 418.995C35.5446 419.02 35.096 418.947 34.6779 418.78V418.78Z" fill="#3F3D56"/>
<path d="M45.5 378C54.6127 378 62 370.613 62 361.5C62 352.387 54.6127 345 45.5 345C36.3873 345 29 352.387 29 361.5C29 370.613 36.3873 378 45.5 378Z" fill="#9E616A"/>
<path d="M216.219 626H-39.219C-39.4263 625.999 -39.625 625.894 -39.7714 625.706C-39.9178 625.519 -40 625.265 -40 625C-40 624.735 -39.9178 624.481 -39.7714 624.294C-39.625 624.106 -39.4263 624.001 -39.219 624H216.219C216.426 624.001 216.625 624.106 216.771 624.294C216.918 624.481 217 624.735 217 625C217 625.265 216.918 625.519 216.771 625.706C216.625 625.894 216.426 625.999 216.219 626V626Z" fill="#CACACA"/>
<path d="M57.2867 354.788C60.8455 354.769 64.4044 354.749 67.9632 354.729C68.2163 352.328 67.1368 349.939 65.5641 348.094C63.9066 346.318 62.0162 344.771 59.9435 343.493C57.9022 342.106 55.7874 340.688 53.3607 340.203C51.3266 339.797 49.2242 340.079 47.1692 340.362C44.4439 340.737 41.7187 341.112 38.9936 341.487C36.0021 341.899 32.8723 342.365 30.4426 344.141C27.1568 346.543 25.8999 350.752 24.8442 354.658L19 376.279L53.5193 379.864C54.768 380.077 56.0471 380.04 57.2812 379.755C57.8958 379.603 58.4515 379.274 58.8792 378.811C59.3068 378.348 59.5877 377.771 59.6868 377.151C59.7862 375.758 58.6694 374.617 57.7625 373.546C55.599 370.892 54.3003 367.651 54.0383 364.25C53.7764 360.849 54.5634 357.45 56.2953 354.502L57.2867 354.788Z" fill="#2F2E41"/>
</g>
<defs>
<clipPath id="clip0">
<rect width="972.675" height="636.537" fill="white"/>
</clipPath>
</defs>
</svg>
